<svg width="528" height="210" viewBox="0 0 528 210" fill="none" xmlns="http://www.w3.org/2000/svg">
    <path fill-rule="evenodd" clip-rule="evenodd" d="M210 210L128.71 0H81.2903L0 210H44.0322L76.2959 116.558L107.443 210H210ZM159.925 192.5L108.387 43.2352H101.613L85.6817 89.3752L120.057 192.5H159.925Z" fill="#334882"/>
    <path d="M240 165L281.561 45H297.594L339 165H324.524L313.005 132.6H265.528L254.009 165H240ZM269.575 119.057H308.958L289.189 61.2857L269.575 119.057Z" fill="#334882"/>
    <path d="M387.474 84C397.263 84 405.106 86.9303 411 92.7907C417 98.6511 420 107.86 420 120.419V165H407.053V121.203C407.053 112.936 405.158 106.657 401.368 102.366C397.685 97.9709 392.316 95.7733 385.263 95.7733C377.684 95.7733 371.736 98.3896 367.421 103.622C363.106 108.855 360.947 115.971 360.947 124.971V165H348V84.9419H359.211L360.947 95.7733C367.053 87.9244 375.895 84 387.474 84Z" fill="#334882"/>
    <path d="M429 165L470.561 45H486.594L528 165H513.524L502.005 132.6H454.528L443.009 165H429ZM458.575 119.057H497.958L478.189 61.2857L458.575 119.057Z" fill="#334882"/>
</svg>